{
	"asset":{
		"generator":"Khronos glTF Blender I/O v4.2.57",
		"version":"2.0"
	},
	"scene":0,
	"scenes":[
		{
			"name":"Scene",
			"nodes":[
				0
			]
		}
	],
	"nodes":[
		{
			"mesh":0,
			"name":"Plane"
		}
	],
	"materials":[
		{
			"doubleSided":true,
			"name":"Material",
			"pbrMetallicRoughness":{
				"baseColorTexture":{
					"index":0
				},
				"metallicFactor":0,
				"metallicRoughnessTexture":{
					"index":1
				}
			}
		}
	],
	"meshes":[
		{
			"name":"Plane.004",
			"primitives":[
				{
					"attributes":{
						"POSITION":0,
						"NORMAL":1,
						"TEXCOORD_0":2,
						"TANGENT":3
					},
					"indices":4,
					"material":0
				}
			]
		}
	],
	"textures":[
		{
			"sampler":0,
			"source":0
		},
		{
			"sampler":0,
			"source":1
		}
	],
	"images":[
		{
			"mimeType":"image/jpeg",
			"name":"Poliigon_BrickWallReclaimed_8320_BaseColor",
			"uri":"Poliigon_BrickWallReclaimed_8320_BaseColor.jpg"
		},
		{
			"mimeType":"image/png",
			"name":"Poliigon_BrickWallReclaimed_8320_Roughness",
			"uri":"Poliigon_BrickWallReclaimed_8320_Roughness.png"
		}
	],
	"accessors":[
		{
			"bufferView":0,
			"componentType":5126,
			"count":1050625,
			"max":[
				10.000001907348633,
				0.11106669902801514,
				10.000001907348633
			],
			"min":[
				0,
				-0.25468218326568604,
				0
			],
			"type":"VEC3"
		},
		{
			"bufferView":1,
			"componentType":5126,
			"count":1050625,
			"type":"VEC3"
		},
		{
			"bufferView":2,
			"componentType":5126,
			"count":1050625,
			"type":"VEC2"
		},
		{
			"bufferView":3,
			"componentType":5126,
			"count":1050625,
			"type":"VEC4"
		},
		{
			"bufferView":4,
			"componentType":5125,
			"count":6291456,
			"type":"SCALAR"
		}
	],
	"bufferViews":[
		{
			"buffer":0,
			"byteLength":12607500,
			"byteOffset":0,
			"target":34962
		},
		{
			"buffer":0,
			"byteLength":12607500,
			"byteOffset":12607500,
			"target":34962
		},
		{
			"buffer":0,
			"byteLength":8405000,
			"byteOffset":25215000,
			"target":34962
		},
		{
			"buffer":0,
			"byteLength":16810000,
			"byteOffset":33620000,
			"target":34962
		},
		{
			"buffer":0,
			"byteLength":25165824,
			"byteOffset":50430000,
			"target":34963
		}
	],
	"samplers":[
		{
			"magFilter":9729,
			"minFilter":9987
		}
	],
	"buffers":[
		{
			"byteLength":75595824,
			"uri":"brick_wall_displaced.bin"
		}
	]
}
