{
	"asset":{
		"generator":"Khronos glTF Blender I/O v4.2.57",
		"version":"2.0"
	},
	"extensionsUsed":[
		"KHR_materials_emissive_strength"
	],
	"scene":0,
	"scenes":[
		{
			"extras":{
				"camera_train_target":{},
				"camera_test_target":{},
				"init_active_camera":{},
				"subrect_atlas":{},
				"uv_box":{},
				"trim_atlas":{},
				"duv_hotspotmaterial":{},
				"lp":{
					"mask_assets":[
						{
							"name":"Spots",
							"thumbnail":"Spots.jpg",
							"asset_type":0,
							"blend_file":"mask_basics.blend"
						},
						{
							"name":"Scratches",
							"thumbnail":"Scratches.jpg",
							"asset_type":0,
							"blend_file":"mask_basics.blend"
						},
						{
							"name":"Object Random",
							"thumbnail":"Object Random.jpg",
							"asset_type":0,
							"blend_file":"mask_basics.blend"
						},
						{
							"name":"Image Texture",
							"thumbnail":"Image Texture.jpg",
							"asset_type":0,
							"blend_file":"mask_basics.blend"
						},
						{
							"name":"Image Lite",
							"thumbnail":"Image Lite.png",
							"asset_type":0,
							"blend_file":"mask_basics.blend"
						},
						{
							"name":"ID Mask",
							"thumbnail":"ID Mask.jpg",
							"asset_type":0,
							"blend_file":"mask_basics.blend"
						},
						{
							"name":"Heavy Damage",
							"thumbnail":"Heavy Damage.jpg",
							"asset_type":0,
							"blend_file":"mask_basics.blend"
						},
						{
							"name":"Gradient Position",
							"thumbnail":"Gradient Position.jpg",
							"asset_type":0,
							"blend_file":"mask_basics.blend"
						},
						{
							"name":"Fingerprints",
							"thumbnail":"Fingerprints.jpg",
							"asset_type":0,
							"blend_file":"mask_basics.blend"
						},
						{
							"name":"Dust",
							"thumbnail":"Dust.jpg",
							"asset_type":0,
							"blend_file":"mask_basics.blend"
						},
						{
							"name":"Droplets Big",
							"thumbnail":"Droplets Big.jpg",
							"asset_type":0,
							"blend_file":"mask_basics.blend"
						},
						{
							"name":"Droplets",
							"thumbnail":"Droplets.jpg",
							"asset_type":0,
							"blend_file":"mask_basics.blend"
						},
						{
							"name":"Damage",
							"thumbnail":"Damage.jpg",
							"asset_type":0,
							"blend_file":"mask_basics.blend"
						},
						{
							"name":"Cracks Detailed",
							"thumbnail":"Cracks Detailed.jpg",
							"asset_type":0,
							"blend_file":"mask_basics.blend"
						},
						{
							"name":"Cracks",
							"thumbnail":"Cracks.jpg",
							"asset_type":0,
							"blend_file":"mask_basics.blend"
						},
						{
							"name":"Checker",
							"thumbnail":"Checker.jpg",
							"asset_type":0,
							"blend_file":"mask_basics.blend"
						},
						{
							"name":"Cells",
							"thumbnail":"Cells.jpg",
							"asset_type":0,
							"blend_file":"mask_basics.blend"
						},
						{
							"name":"Edge Mask - Pointiness C",
							"thumbnail":"Edge Mask - Pointiness C.png",
							"asset_type":0,
							"blend_file":"Geometry_Based_Masks.blend"
						},
						{
							"name":"Edge and Corner Mask - Bevel C",
							"thumbnail":"Edge and Corner Mask - Bevel C.png",
							"asset_type":0,
							"blend_file":"Geometry_Based_Masks.blend"
						},
						{
							"name":"Cavity, Crevice, Inner Corner Mask - AO",
							"thumbnail":"Cavity, Crevice, Inner Corner Mask - AO.png",
							"asset_type":0,
							"blend_file":"Geometry_Based_Masks.blend"
						},
						{
							"name":"Spline Noise",
							"thumbnail":"Spline Noise.png",
							"asset_type":0,
							"blend_file":"Procedural_Noise_Masks.blend"
						},
						{
							"name":"Smudged Dirt",
							"thumbnail":"Smudged Dirt.png",
							"asset_type":0,
							"blend_file":"Procedural_Noise_Masks.blend"
						},
						{
							"name":"Rust Patches",
							"thumbnail":"Rust Patches.png",
							"asset_type":0,
							"blend_file":"Procedural_Noise_Masks.blend"
						},
						{
							"name":"Noisy Lines",
							"thumbnail":"Noisy Lines.png",
							"asset_type":0,
							"blend_file":"Procedural_Noise_Masks.blend"
						},
						{
							"name":"Gneiss, Malachite, Agate",
							"thumbnail":"Gneiss, Malachite, Agate.png",
							"asset_type":0,
							"blend_file":"Procedural_Noise_Masks.blend"
						},
						{
							"name":"Dusty",
							"thumbnail":"Dusty.png",
							"asset_type":0,
							"blend_file":"Procedural_Noise_Masks.blend"
						},
						{
							"name":"Distorted Spots",
							"thumbnail":"Distorted Spots.png",
							"asset_type":0,
							"blend_file":"Procedural_Noise_Masks.blend"
						},
						{
							"name":"Dirt Spots",
							"thumbnail":"Dirt Spots.png",
							"asset_type":0,
							"blend_file":"Procedural_Noise_Masks.blend"
						},
						{
							"name":"Dirt",
							"thumbnail":"Dirt.png",
							"asset_type":0,
							"blend_file":"Procedural_Noise_Masks.blend"
						},
						{
							"name":"Concrete, Marble",
							"thumbnail":"Concrete, Marble.png",
							"asset_type":0,
							"blend_file":"Procedural_Noise_Masks.blend"
						}
					],
					"filter_assets":[
						{
							"name":"RGB Curves",
							"thumbnail":"RGB Curves.jpg",
							"asset_type":1,
							"blend_file":"filter_basics.blend"
						},
						{
							"name":"Mix Color",
							"thumbnail":"Mix Color.png",
							"asset_type":1,
							"blend_file":"filter_basics.blend"
						},
						{
							"name":"Map Range",
							"thumbnail":"Map Range.jpg",
							"asset_type":1,
							"blend_file":"filter_basics.blend"
						},
						{
							"name":"Invert",
							"thumbnail":"Invert.jpg",
							"asset_type":1,
							"blend_file":"filter_basics.blend"
						},
						{
							"name":"HSV",
							"thumbnail":"HSV.jpg",
							"asset_type":1,
							"blend_file":"filter_basics.blend"
						},
						{
							"name":"Gamma",
							"thumbnail":"Gamma.png",
							"asset_type":1,
							"blend_file":"filter_basics.blend"
						},
						{
							"name":"Color Ramp",
							"thumbnail":"Color Ramp.jpg",
							"asset_type":1,
							"blend_file":"filter_basics.blend"
						},
						{
							"name":"Clamp",
							"thumbnail":"Clamp.png",
							"asset_type":1,
							"blend_file":"filter_basics.blend"
						},
						{
							"name":"Bright Contrast",
							"thumbnail":"Bright Contrast.jpg",
							"asset_type":1,
							"blend_file":"filter_basics.blend"
						}
					]
				},
				"air_props":{},
				"save_path":"",
				"init_frame_step":1,
				"init_output_path":"/tmp/",
				"ypui":{
					"expand_channels":0,
					"expand_mask_channels":0,
					"show_bake_targets":0,
					"show_channels":1,
					"show_layers":1,
					"show_materials":0,
					"show_object":0,
					"show_stats":0,
					"show_support":0,
					"tree_name":""
				}
			},
			"name":"Scene",
			"nodes":[
				0,
				1,
				2,
				3,
				4,
				5,
				6,
				7,
				8,
				9,
				10,
				11,
				12,
				13
			]
		}
	],
	"nodes":[
		{
			"mesh":0,
			"name":"Cube",
			"translation":[
				0,
				2.7224247455596924,
				0
			]
		},
		{
			"mesh":1,
			"name":"Plane"
		},
		{
			"mesh":2,
			"name":"Cube.001",
			"translation":[
				-5.6543731689453125,
				0.0030002593994140625,
				0.013645172119140625
			]
		},
		{
			"mesh":3,
			"name":"Cube.002",
			"translation":[
				-4.090230941772461,
				4.472118854522705,
				-4.956482887268066
			]
		},
		{
			"mesh":4,
			"name":"Cube.003",
			"translation":[
				2.341503143310547,
				0.3555701673030853,
				3.054433822631836
			]
		},
		{
			"mesh":5,
			"name":"Cube.005",
			"translation":[
				-3.9958019256591797,
				0.8157672882080078,
				3.6710031032562256
			]
		},
		{
			"mesh":6,
			"name":"Cube.006",
			"translation":[
				-3.9958019256591797,
				0.8157672882080078,
				1.0502285957336426
			]
		},
		{
			"mesh":7,
			"name":"Cube.004",
			"translation":[
				3.6121840476989746,
				0.6425008773803711,
				-4.85938835144043
			]
		},
		{
			"mesh":8,
			"name":"Cube.007",
			"translation":[
				10.90345573425293,
				0.3555701673030853,
				8.405811309814453
			]
		},
		{
			"extras":{
				"LightMesh":true
			},
			"mesh":9,
			"name":"LightCube",
			"translation":[
				10.90345573425293,
				0.3555701673030853,
				2.9181900024414062
			]
		},
		{
			"mesh":10,
			"name":"Cube.009",
			"translation":[
				10.90345573425293,
				0.3555701673030853,
				-2.8640079498291016
			]
		},
		{
			"mesh":11,
			"name":"Cube.010",
			"translation":[
				4.900510787963867,
				0.3555701673030853,
				9.857760429382324
			]
		},
		{
			"mesh":12,
			"name":"Plane.001",
			"translation":[
				5.049272537231445,
				0.5631923675537109,
				-6.479112148284912
			]
		},
		{
			"mesh":13,
			"name":"Plane.002",
			"translation":[
				-4.50507116317749,
				4.993521690368652,
				2.076341152191162
			]
		}
	],
	"materials":[
		{
			"doubleSided":true,
			"extras":{
				"lp":{
					"uid":"5157a2d78e"
				},
				"pov":{},
				"yp":{
					"active_ypaint_node":""
				}
			},
			"name":"green",
			"pbrMetallicRoughness":{
				"baseColorFactor":[
					0.048896417021751404,
					0.23301468789577484,
					0.0438104122877121,
					1
				],
				"metallicFactor":0,
				"roughnessFactor":0.4000000059604645
			}
		},
		{
			"doubleSided":true,
			"extras":{
				"lp":{
					"uid":"5157a2d78e"
				},
				"pov":{},
				"yp":{
					"active_ypaint_node":""
				}
			},
			"name":"pattern",
			"pbrMetallicRoughness":{
				"baseColorTexture":{
					"index":0
				},
				"metallicFactor":0,
				"roughnessFactor":0.4000000059604645
			}
		},
		{
			"doubleSided":true,
			"extras":{
				"lp":{
					"uid":"5157a2d78e"
				},
				"pov":{},
				"yp":{
					"active_ypaint_node":""
				}
			},
			"name":"white",
			"pbrMetallicRoughness":{
				"baseColorFactor":[
					0.40704894065856934,
					0.40704894065856934,
					0.40704894065856934,
					1
				],
				"metallicFactor":0,
				"roughnessFactor":0.4000000059604645
			}
		},
		{
			"doubleSided":true,
			"extras":{
				"lp":{
					"uid":"641bf64548"
				},
				"pov":{},
				"yp":{
					"active_ypaint_node":""
				}
			},
			"name":"red",
			"pbrMetallicRoughness":{
				"baseColorFactor":[
					0.4868958294391632,
					0.10866356641054153,
					0.08200369775295258,
					1
				],
				"metallicFactor":0,
				"roughnessFactor":0.5
			}
		},
		{
			"doubleSided":true,
			"extras":{
				"lp":{
					"uid":"794a80c64c"
				},
				"pov":{},
				"yp":{
					"active_ypaint_node":""
				}
			},
			"name":"blue",
			"pbrMetallicRoughness":{
				"baseColorFactor":[
					0.03240432217717171,
					0.08670193701982498,
					0.7969263195991516,
					1
				],
				"metallicFactor":0,
				"roughnessFactor":0.5
			}
		},
		{
			"doubleSided":true,
			"emissiveFactor":[
				1,
				0.22317621109161473,
				0.16842144211300705
			],
			"extensions":{
				"KHR_materials_emissive_strength":{
					"emissiveStrength":5.745370415910088
				}
			},
			"extras":{
				"lp":{
					"uid":"641bf64548"
				},
				"pov":{},
				"yp":{
					"active_ypaint_node":""
				}
			},
			"name":"red-light",
			"pbrMetallicRoughness":{
				"baseColorFactor":[
					0.4868958294391632,
					0.10866356641054153,
					0.08200369775295258,
					1
				],
				"metallicFactor":0,
				"roughnessFactor":0.5
			}
		},
		{
			"doubleSided":true,
			"extras":{
				"lp":{
					"uid":"5157a2d78e"
				},
				"pov":{},
				"yp":{
					"active_ypaint_node":""
				}
			},
			"name":"mirror",
			"pbrMetallicRoughness":{
				"metallicFactor":0
			}
		}
	],
	"meshes":[
		{
			"name":"Cube",
			"primitives":[
				{
					"attributes":{
						"POSITION":0,
						"NORMAL":1,
						"TEXCOORD_0":2
					},
					"indices":3,
					"material":0
				}
			]
		},
		{
			"name":"Plane",
			"primitives":[
				{
					"attributes":{
						"POSITION":4,
						"NORMAL":5,
						"TEXCOORD_0":6
					},
					"indices":7,
					"material":1
				}
			]
		},
		{
			"name":"Cube.001",
			"primitives":[
				{
					"attributes":{
						"POSITION":8,
						"NORMAL":9,
						"TEXCOORD_0":10
					},
					"indices":11,
					"material":2
				}
			]
		},
		{
			"name":"Cube.002",
			"primitives":[
				{
					"attributes":{
						"POSITION":12,
						"NORMAL":13,
						"TEXCOORD_0":14
					},
					"indices":15,
					"material":3
				}
			]
		},
		{
			"name":"Cube.003",
			"primitives":[
				{
					"attributes":{
						"POSITION":16,
						"NORMAL":17,
						"TEXCOORD_0":18
					},
					"indices":15,
					"material":4
				}
			]
		},
		{
			"name":"Cube.005",
			"primitives":[
				{
					"attributes":{
						"POSITION":19,
						"NORMAL":20,
						"TEXCOORD_0":21
					},
					"indices":15,
					"material":3
				}
			]
		},
		{
			"name":"Cube.006",
			"primitives":[
				{
					"attributes":{
						"POSITION":22,
						"NORMAL":23,
						"TEXCOORD_0":24
					},
					"indices":15,
					"material":4
				}
			]
		},
		{
			"name":"Cube.007",
			"primitives":[
				{
					"attributes":{
						"POSITION":25,
						"NORMAL":26,
						"TEXCOORD_0":27
					},
					"indices":15,
					"material":3
				}
			]
		},
		{
			"name":"Cube.008",
			"primitives":[
				{
					"attributes":{
						"POSITION":28,
						"NORMAL":29,
						"TEXCOORD_0":30
					},
					"indices":15,
					"material":4
				}
			]
		},
		{
			"extras":{
				"LightMesh":true
			},
			"name":"LightCubeMesh",
			"primitives":[
				{
					"attributes":{
						"POSITION":31,
						"NORMAL":32,
						"TEXCOORD_0":33
					},
					"indices":15,
					"material":5
				}
			]
		},
		{
			"name":"Cube.010",
			"primitives":[
				{
					"attributes":{
						"POSITION":34,
						"NORMAL":35,
						"TEXCOORD_0":36
					},
					"indices":15,
					"material":0
				}
			]
		},
		{
			"name":"Cube.011",
			"primitives":[
				{
					"attributes":{
						"POSITION":37,
						"NORMAL":38,
						"TEXCOORD_0":39
					},
					"indices":15,
					"material":2
				}
			]
		},
		{
			"name":"Plane.001",
			"primitives":[
				{
					"attributes":{
						"POSITION":40,
						"NORMAL":41,
						"TEXCOORD_0":42
					},
					"indices":43
				}
			]
		},
		{
			"name":"Plane.002",
			"primitives":[
				{
					"attributes":{
						"POSITION":44,
						"NORMAL":45,
						"TEXCOORD_0":46
					},
					"indices":47,
					"material":6
				}
			]
		}
	],
	"textures":[
		{
			"sampler":0,
			"source":0
		}
	],
	"images":[
		{
			"mimeType":"image/png",
			"name":"test-texture",
			"uri":"test-texture.png"
		}
	],
	"accessors":[
		{
			"bufferView":0,
			"componentType":5126,
			"count":24,
			"max":[
				1,
				1,
				1
			],
			"min":[
				-1,
				-3.9093639850616455,
				-1
			],
			"type":"VEC3"
		},
		{
			"bufferView":1,
			"componentType":5126,
			"count":24,
			"type":"VEC3"
		},
		{
			"bufferView":2,
			"componentType":5126,
			"count":24,
			"type":"VEC2"
		},
		{
			"bufferView":3,
			"componentType":5123,
			"count":36,
			"type":"SCALAR"
		},
		{
			"bufferView":4,
			"componentType":5126,
			"count":24,
			"max":[
				12.680551528930664,
				0,
				12.680551528930664
			],
			"min":[
				-12.680551528930664,
				-2.6709039211273193,
				-12.680551528930664
			],
			"type":"VEC3"
		},
		{
			"bufferView":5,
			"componentType":5126,
			"count":24,
			"type":"VEC3"
		},
		{
			"bufferView":6,
			"componentType":5126,
			"count":24,
			"type":"VEC2"
		},
		{
			"bufferView":7,
			"componentType":5123,
			"count":36,
			"type":"SCALAR"
		},
		{
			"bufferView":8,
			"componentType":5126,
			"count":44,
			"max":[
				13.83992862701416,
				7.74985408782959,
				5.502394199371338
			],
			"min":[
				-1,
				-1,
				-7.549529075622559
			],
			"type":"VEC3"
		},
		{
			"bufferView":9,
			"componentType":5126,
			"count":44,
			"type":"VEC3"
		},
		{
			"bufferView":10,
			"componentType":5126,
			"count":44,
			"type":"VEC2"
		},
		{
			"bufferView":11,
			"componentType":5123,
			"count":84,
			"type":"SCALAR"
		},
		{
			"bufferView":12,
			"componentType":5126,
			"count":24,
			"max":[
				1,
				1,
				1
			],
			"min":[
				-1,
				-1,
				-1
			],
			"type":"VEC3"
		},
		{
			"bufferView":13,
			"componentType":5126,
			"count":24,
			"type":"VEC3"
		},
		{
			"bufferView":14,
			"componentType":5126,
			"count":24,
			"type":"VEC2"
		},
		{
			"bufferView":15,
			"componentType":5123,
			"count":36,
			"type":"SCALAR"
		},
		{
			"bufferView":16,
			"componentType":5126,
			"count":24,
			"max":[
				1,
				1,
				1
			],
			"min":[
				-1,
				-1,
				-1
			],
			"type":"VEC3"
		},
		{
			"bufferView":17,
			"componentType":5126,
			"count":24,
			"type":"VEC3"
		},
		{
			"bufferView":18,
			"componentType":5126,
			"count":24,
			"type":"VEC2"
		},
		{
			"bufferView":19,
			"componentType":5126,
			"count":24,
			"max":[
				1,
				1,
				1
			],
			"min":[
				-1,
				-1,
				-1
			],
			"type":"VEC3"
		},
		{
			"bufferView":20,
			"componentType":5126,
			"count":24,
			"type":"VEC3"
		},
		{
			"bufferView":21,
			"componentType":5126,
			"count":24,
			"type":"VEC2"
		},
		{
			"bufferView":22,
			"componentType":5126,
			"count":24,
			"max":[
				1,
				1,
				1
			],
			"min":[
				-1,
				-1,
				-1
			],
			"type":"VEC3"
		},
		{
			"bufferView":23,
			"componentType":5126,
			"count":24,
			"type":"VEC3"
		},
		{
			"bufferView":24,
			"componentType":5126,
			"count":24,
			"type":"VEC2"
		},
		{
			"bufferView":25,
			"componentType":5126,
			"count":24,
			"max":[
				1,
				3.4226338863372803,
				1.5972130298614502
			],
			"min":[
				-1,
				-1,
				-1
			],
			"type":"VEC3"
		},
		{
			"bufferView":26,
			"componentType":5126,
			"count":24,
			"type":"VEC3"
		},
		{
			"bufferView":27,
			"componentType":5126,
			"count":24,
			"type":"VEC2"
		},
		{
			"bufferView":28,
			"componentType":5126,
			"count":24,
			"max":[
				1,
				1,
				1
			],
			"min":[
				-1,
				-1,
				-1
			],
			"type":"VEC3"
		},
		{
			"bufferView":29,
			"componentType":5126,
			"count":24,
			"type":"VEC3"
		},
		{
			"bufferView":30,
			"componentType":5126,
			"count":24,
			"type":"VEC2"
		},
		{
			"bufferView":31,
			"componentType":5126,
			"count":24,
			"max":[
				1,
				1,
				1
			],
			"min":[
				-1,
				-1,
				-1
			],
			"type":"VEC3"
		},
		{
			"bufferView":32,
			"componentType":5126,
			"count":24,
			"type":"VEC3"
		},
		{
			"bufferView":33,
			"componentType":5126,
			"count":24,
			"type":"VEC2"
		},
		{
			"bufferView":34,
			"componentType":5126,
			"count":24,
			"max":[
				1,
				1,
				1
			],
			"min":[
				-1,
				-1,
				-1
			],
			"type":"VEC3"
		},
		{
			"bufferView":35,
			"componentType":5126,
			"count":24,
			"type":"VEC3"
		},
		{
			"bufferView":36,
			"componentType":5126,
			"count":24,
			"type":"VEC2"
		},
		{
			"bufferView":37,
			"componentType":5126,
			"count":24,
			"max":[
				1,
				1,
				1
			],
			"min":[
				-1,
				-1,
				-1
			],
			"type":"VEC3"
		},
		{
			"bufferView":38,
			"componentType":5126,
			"count":24,
			"type":"VEC3"
		},
		{
			"bufferView":39,
			"componentType":5126,
			"count":24,
			"type":"VEC2"
		},
		{
			"bufferView":40,
			"componentType":5126,
			"count":8,
			"max":[
				2.7864179611206055,
				6.993438720703125,
				11.292407035827637
			],
			"min":[
				-10.744247436523438,
				-1,
				0
			],
			"type":"VEC3"
		},
		{
			"bufferView":41,
			"componentType":5126,
			"count":8,
			"type":"VEC3"
		},
		{
			"bufferView":42,
			"componentType":5126,
			"count":8,
			"type":"VEC2"
		},
		{
			"bufferView":43,
			"componentType":5123,
			"count":12,
			"type":"SCALAR"
		},
		{
			"bufferView":44,
			"componentType":5126,
			"count":4,
			"max":[
				0,
				1,
				0.9999999403953552
			],
			"min":[
				0,
				-1,
				-0.9999999403953552
			],
			"type":"VEC3"
		},
		{
			"bufferView":45,
			"componentType":5126,
			"count":4,
			"type":"VEC3"
		},
		{
			"bufferView":46,
			"componentType":5126,
			"count":4,
			"type":"VEC2"
		},
		{
			"bufferView":47,
			"componentType":5123,
			"count":6,
			"type":"SCALAR"
		}
	],
	"bufferViews":[
		{
			"buffer":0,
			"byteLength":288,
			"byteOffset":0,
			"target":34962
		},
		{
			"buffer":0,
			"byteLength":288,
			"byteOffset":288,
			"target":34962
		},
		{
			"buffer":0,
			"byteLength":192,
			"byteOffset":576,
			"target":34962
		},
		{
			"buffer":0,
			"byteLength":72,
			"byteOffset":768,
			"target":34963
		},
		{
			"buffer":0,
			"byteLength":288,
			"byteOffset":840,
			"target":34962
		},
		{
			"buffer":0,
			"byteLength":288,
			"byteOffset":1128,
			"target":34962
		},
		{
			"buffer":0,
			"byteLength":192,
			"byteOffset":1416,
			"target":34962
		},
		{
			"buffer":0,
			"byteLength":72,
			"byteOffset":1608,
			"target":34963
		},
		{
			"buffer":0,
			"byteLength":528,
			"byteOffset":1680,
			"target":34962
		},
		{
			"buffer":0,
			"byteLength":528,
			"byteOffset":2208,
			"target":34962
		},
		{
			"buffer":0,
			"byteLength":352,
			"byteOffset":2736,
			"target":34962
		},
		{
			"buffer":0,
			"byteLength":168,
			"byteOffset":3088,
			"target":34963
		},
		{
			"buffer":0,
			"byteLength":288,
			"byteOffset":3256,
			"target":34962
		},
		{
			"buffer":0,
			"byteLength":288,
			"byteOffset":3544,
			"target":34962
		},
		{
			"buffer":0,
			"byteLength":192,
			"byteOffset":3832,
			"target":34962
		},
		{
			"buffer":0,
			"byteLength":72,
			"byteOffset":4024,
			"target":34963
		},
		{
			"buffer":0,
			"byteLength":288,
			"byteOffset":4096,
			"target":34962
		},
		{
			"buffer":0,
			"byteLength":288,
			"byteOffset":4384,
			"target":34962
		},
		{
			"buffer":0,
			"byteLength":192,
			"byteOffset":4672,
			"target":34962
		},
		{
			"buffer":0,
			"byteLength":288,
			"byteOffset":4864,
			"target":34962
		},
		{
			"buffer":0,
			"byteLength":288,
			"byteOffset":5152,
			"target":34962
		},
		{
			"buffer":0,
			"byteLength":192,
			"byteOffset":5440,
			"target":34962
		},
		{
			"buffer":0,
			"byteLength":288,
			"byteOffset":5632,
			"target":34962
		},
		{
			"buffer":0,
			"byteLength":288,
			"byteOffset":5920,
			"target":34962
		},
		{
			"buffer":0,
			"byteLength":192,
			"byteOffset":6208,
			"target":34962
		},
		{
			"buffer":0,
			"byteLength":288,
			"byteOffset":6400,
			"target":34962
		},
		{
			"buffer":0,
			"byteLength":288,
			"byteOffset":6688,
			"target":34962
		},
		{
			"buffer":0,
			"byteLength":192,
			"byteOffset":6976,
			"target":34962
		},
		{
			"buffer":0,
			"byteLength":288,
			"byteOffset":7168,
			"target":34962
		},
		{
			"buffer":0,
			"byteLength":288,
			"byteOffset":7456,
			"target":34962
		},
		{
			"buffer":0,
			"byteLength":192,
			"byteOffset":7744,
			"target":34962
		},
		{
			"buffer":0,
			"byteLength":288,
			"byteOffset":7936,
			"target":34962
		},
		{
			"buffer":0,
			"byteLength":288,
			"byteOffset":8224,
			"target":34962
		},
		{
			"buffer":0,
			"byteLength":192,
			"byteOffset":8512,
			"target":34962
		},
		{
			"buffer":0,
			"byteLength":288,
			"byteOffset":8704,
			"target":34962
		},
		{
			"buffer":0,
			"byteLength":288,
			"byteOffset":8992,
			"target":34962
		},
		{
			"buffer":0,
			"byteLength":192,
			"byteOffset":9280,
			"target":34962
		},
		{
			"buffer":0,
			"byteLength":288,
			"byteOffset":9472,
			"target":34962
		},
		{
			"buffer":0,
			"byteLength":288,
			"byteOffset":9760,
			"target":34962
		},
		{
			"buffer":0,
			"byteLength":192,
			"byteOffset":10048,
			"target":34962
		},
		{
			"buffer":0,
			"byteLength":96,
			"byteOffset":10240,
			"target":34962
		},
		{
			"buffer":0,
			"byteLength":96,
			"byteOffset":10336,
			"target":34962
		},
		{
			"buffer":0,
			"byteLength":64,
			"byteOffset":10432,
			"target":34962
		},
		{
			"buffer":0,
			"byteLength":24,
			"byteOffset":10496,
			"target":34963
		},
		{
			"buffer":0,
			"byteLength":48,
			"byteOffset":10520,
			"target":34962
		},
		{
			"buffer":0,
			"byteLength":48,
			"byteOffset":10568,
			"target":34962
		},
		{
			"buffer":0,
			"byteLength":32,
			"byteOffset":10616,
			"target":34962
		},
		{
			"buffer":0,
			"byteLength":12,
			"byteOffset":10648,
			"target":34963
		}
	],
	"samplers":[
		{
			"magFilter":9729,
			"minFilter":9987
		}
	],
	"buffers":[
		{
			"byteLength":10660,
			"uri":"gi-test.bin"
		}
	]
}
